<svg width="100" height="100" viewBox="0 0 100 100" fill="none" xmlns="http://www.w3.org/2000/svg">
  <!-- Leaf Pattern -->
  <path d="M20 20 C25 15 35 15 40 20 C45 25 45 35 40 40 C35 45 25 45 20 40 C15 35 15 25 20 20 Z" fill="currentColor" opacity="0.5" />
  <path d="M30 30 L40 20" stroke="currentColor" stroke-width="1" opacity="0.5" />
  <path d="M30 30 L20 40" stroke="currentColor" stroke-width="1" opacity="0.5" />
  
  <!-- Grain Pattern -->
  <path d="M70 20 L80 10 M70 20 L60 10 M70 20 L70 5" stroke="currentColor" stroke-width="1" opacity="0.5" />
  <circle cx="70" cy="20" r="3" fill="currentColor" opacity="0.5" />
  
  <!-- Water Drop -->
  <path d="M20 70 C20 60 30 60 30 70 C30 75 25 80 20 70 Z" fill="currentColor" opacity="0.5" />
  
  <!-- Tech Element -->
  <rect x="60" y="60" width="20" height="20" rx="2" stroke="currentColor" stroke-width="1" opacity="0.5" />
  <path d="M65 70 L75 70 M70 65 L70 75" stroke="currentColor" stroke-width="1" opacity="0.5" />
  
  <!-- Connecting Lines -->
  <path d="M40 40 L60 60" stroke="currentColor" stroke-width="0.5" opacity="0.3" stroke-dasharray="2 2" />
  <path d="M30 70 L60 70" stroke="currentColor" stroke-width="0.5" opacity="0.3" stroke-dasharray="2 2" />
  <path d="M70 30 L70 60" stroke="currentColor" stroke-width="0.5" opacity="0.3" stroke-dasharray="2 2" />
</svg>