<svg width="800" height="500" viewBox="0 0 800 500" fill="none" xmlns="http://www.w3.org/2000/svg">
  <!-- Background -->
  <rect width="800" height="500" rx="12" fill="#F8FAFC" />
  
  <!-- Header -->
  <rect x="20" y="20" width="760" height="60" rx="8" fill="#E2E8F0" />
  <rect x="40" y="40" width="120" height="20" rx="4" fill="#94A3B8" />
  <circle cx="740" cy="40" r="16" fill="#10B981" />
  <circle cx="700" cy="40" r="16" fill="#0EA5E9" />
  <circle cx="660" cy="40" r="16" fill="#8B5CF6" />
  
  <!-- Main Content -->
  <rect x="20" y="100" width="500" height="380" rx="8" fill="#E2E8F0" />
  
  <!-- Chart -->
  <rect x="40" y="140" width="460" height="240" rx="8" fill="#F1F5F9" />
  <path d="M40 280 Q120 200 200 260 Q280 320 360 200 Q440 80 500 140" stroke="#10B981" stroke-width="3" fill="none" />
  <path d="M40 320 Q120 280 200 300 Q280 320 360 280 Q440 240 500 260" stroke="#0EA5E9" stroke-width="3" fill="none" />
  <path d="M40 240 Q120 260 200 220 Q280 180 360 240 Q440 300 500 220" stroke="#8B5CF6" stroke-width="3" fill="none" />
  
  <!-- Chart Labels -->
  <rect x="40" y="120" width="80" height="10" rx="2" fill="#94A3B8" />
  <rect x="40" y="390" width="460" height="1" rx="0.5" fill="#CBD5E1" />
  <rect x="40" y="390" width="1" height="10" rx="0.5" fill="#CBD5E1" />
  <rect x="120" y="390" width="1" height="10" rx="0.5" fill="#CBD5E1" />
  <rect x="200" y="390" width="1" height="10" rx="0.5" fill="#CBD5E1" />
  <rect x="280" y="390" width="1" height="10" rx="0.5" fill="#CBD5E1" />
  <rect x="360" y="390" width="1" height="10" rx="0.5" fill="#CBD5E1" />
  <rect x="440" y="390" width="1" height="10" rx="0.5" fill="#CBD5E1" />
  <rect x="500" y="390" width="1" height="10" rx="0.5" fill="#CBD5E1" />
  
  <!-- Sidebar -->
  <rect x="540" y="100" width="240" height="380" rx="8" fill="#E2E8F0" />
  
  <!-- Sidebar Content -->
  <rect x="560" y="120" width="200" height="20" rx="4" fill="#94A3B8" />
  
  <!-- Crop Health Cards -->
  <rect x="560" y="160" width="200" height="80" rx="8" fill="#F1F5F9" />
  <circle cx="580" cy="180" r="10" fill="#10B981" />
  <rect x="600" y="175" width="140" height="10" rx="2" fill="#94A3B8" />
  <rect x="600" y="195" width="100" height="30" rx="4" fill="#E2E8F0" />
  
  <rect x="560" y="260" width="200" height="80" rx="8" fill="#F1F5F9" />
  <circle cx="580" cy="280" r="10" fill="#0EA5E9" />
  <rect x="600" y="275" width="140" height="10" rx="2" fill="#94A3B8" />
  <rect x="600" y="295" width="100" height="30" rx="4" fill="#E2E8F0" />
  
  <rect x="560" y="360" width="200" height="80" rx="8" fill="#F1F5F9" />
  <circle cx="580" cy="380" r="10" fill="#8B5CF6" />
  <rect x="600" y="375" width="140" height="10" rx="2" fill="#94A3B8" />
  <rect x="600" y="395" width="100" height="30" rx="4" fill="#E2E8F0" />
</svg>