<svg width="800" height="500" viewBox="0 0 800 500" fill="none" xmlns="http://www.w3.org/2000/svg">
  <!-- Background -->
  <rect width="800" height="500" rx="12" fill="#F8FAFC" />
  
  <!-- Header -->
  <rect x="20" y="20" width="760" height="60" rx="8" fill="#E2E8F0" />
  <rect x="40" y="40" width="120" height="20" rx="4" fill="#94A3B8" />
  <circle cx="740" cy="40" r="16" fill="#10B981" />
  <circle cx="700" cy="40" r="16" fill="#0EA5E9" />
  <circle cx="660" cy="40" r="16" fill="#8B5CF6" />
  
  <!-- Main Content - Spectral Analysis -->
  <rect x="20" y="100" width="500" height="380" rx="8" fill="#E2E8F0" />
  
  <!-- Spectral Graph -->
  <rect x="40" y="140" width="460" height="240" rx="8" fill="#F1F5F9" />
  
  <!-- Spectral Lines -->
  <path d="M40 340 C80 280 120 320 160 300 C200 280 240 200 280 220 C320 240 360 180 400 220 C440 260 480 240 500 220" stroke="#8B5CF6" stroke-width="3" fill="none" />
  <path d="M40 320 C80 300 120 340 160 320 C200 300 240 260 280 280 C320 300 360 260 400 280 C440 300 480 280 500 260" stroke="#0EA5E9" stroke-width="3" fill="none" />
  <path d="M40 300 C80 320 120 280 160 260 C200 240 240 280 280 260 C320 240 360 300 400 260 C440 220 480 260 500 280" stroke="#10B981" stroke-width="3" fill="none" />
  
  <!-- Wavelength Markers -->
  <rect x="40" y="390" width="460" height="1" rx="0.5" fill="#CBD5E1" />
  <rect x="40" y="380" width="1" height="20" rx="0.5" fill="#CBD5E1" />
  <rect x="120" y="380" width="1" height="20" rx="0.5" fill="#CBD5E1" />
  <rect x="200" y="380" width="1" height="20" rx="0.5" fill="#CBD5E1" />
  <rect x="280" y="380" width="1" height="20" rx="0.5" fill="#CBD5E1" />
  <rect x="360" y="380" width="1" height="20" rx="0.5" fill="#CBD5E1" />
  <rect x="440" y="380" width="1" height="20" rx="0.5" fill="#CBD5E1" />
  <rect x="500" y="380" width="1" height="20" rx="0.5" fill="#CBD5E1" />
  
  <!-- Wavelength Labels -->
  <rect x="40" y="410" width="20" height="8" rx="2" fill="#94A3B8" />
  <rect x="120" y="410" width="20" height="8" rx="2" fill="#94A3B8" />
  <rect x="200" y="410" width="20" height="8" rx="2" fill="#94A3B8" />
  <rect x="280" y="410" width="20" height="8" rx="2" fill="#94A3B8" />
  <rect x="360" y="410" width="20" height="8" rx="2" fill="#94A3B8" />
  <rect x="440" y="410" width="20" height="8" rx="2" fill="#94A3B8" />
  
  <!-- Graph Title -->
  <rect x="40" y="120" width="180" height="10" rx="2" fill="#94A3B8" />
  
  <!-- Sidebar -->
  <rect x="540" y="100" width="240" height="380" rx="8" fill="#E2E8F0" />
  
  <!-- Analysis Controls -->
  <rect x="560" y="120" width="200" height="20" rx="4" fill="#94A3B8" />
  
  <!-- Spectral Bands -->
  <rect x="560" y="160" width="200" height="200" rx="8" fill="#F1F5F9" />
  
  <!-- Band Selection -->
  <rect x="580" y="180" width="160" height="30" rx="4" fill="#E2E8F0" />
  <rect x="580" y="180" width="60" height="30" rx="4" fill="#8B5CF6" opacity="0.7" />
  
  <!-- Band Labels -->
  <rect x="580" y="230" width="40" height="8" rx="2" fill="#94A3B8" />
  <rect x="640" y="230" width="40" height="8" rx="2" fill="#94A3B8" />
  <rect x="700" y="230" width="40" height="8" rx="2" fill="#94A3B8" />
  
  <!-- Band Values -->
  <rect x="580" y="250" width="40" height="20" rx="4" fill="#E2E8F0" />
  <rect x="640" y="250" width="40" height="20" rx="4" fill="#E2E8F0" />
  <rect x="700" y="250" width="40" height="20" rx="4" fill="#E2E8F0" />
  
  <rect x="580" y="280" width="40" height="8" rx="2" fill="#94A3B8" />
  <rect x="640" y="280" width="40" height="8" rx="2" fill="#94A3B8" />
  <rect x="700" y="280" width="40" height="8" rx="2" fill="#94A3B8" />
  
  <rect x="580" y="300" width="40" height="20" rx="4" fill="#E2E8F0" />
  <rect x="640" y="300" width="40" height="20" rx="4" fill="#E2E8F0" />
  <rect x="700" y="300" width="40" height="20" rx="4" fill="#E2E8F0" />
  
  <!-- Analysis Results -->
  <rect x="560" y="380" width="200" height="80" rx="8" fill="#F1F5F9" />
  <rect x="580" y="400" width="100" height="10" rx="2" fill="#94A3B8" />
  <rect x="580" y="420" width="160" height="20" rx="4" fill="#E2E8F0" />
  <rect x="580" y="420" width="120" height="20" rx="4" fill="#10B981" opacity="0.7" />
</svg>